<?xml version="1.0" encoding="UTF-8"?>
<svg width="14px" height="14px" viewBox="0 0 14 14" version="1.1" xmlns="http://www.w3.org/2000/svg" xmlns:xlink="http://www.w3.org/1999/xlink">
    <!-- Generator: sketchtool 61 (101010) - https://sketch.com -->
    <title>bh_ic_patient</title>
    <g id="Header-update" stroke="none" stroke-width="1" fill="none" fill-rule="evenodd">
        <g id="Header-Update" transform="translate(-1335.000000, -11.000000)">
            <g id="Signin" transform="translate(1321.000000, 0.000000)">
                <g id="icon" transform="translate(14.000000, 11.000000)">
                    <path d="M7,1.6625 C8.015,1.6625 8.8375,2.485 8.8375,3.5 C8.8375,4.515 8.015,5.3375 7,5.3375 C5.985,5.3375 5.1625,4.515 5.1625,3.5 C5.1625,2.485 5.985,1.6625 7,1.6625 L7,1.6625 Z M7,9.5375 C9.59875,9.5375 12.3375,10.7351562 12.3375,11.2601562 L12.3375,12.1625 L1.6625,12.1625 L1.6625,11.2601562 C1.6625,10.7351562 4.40125,9.5375 7,9.5375 L7,9.5375 Z M7,0 C5.06625,0 3.5,1.56625 3.5,3.5 C3.5,5.43375 5.06625,7 7,7 C8.93375,7 10.5,5.43375 10.5,3.5 C10.5,1.56625 8.93375,0 7,0 Z M7,7.875 C4.66375,7.875 0,9.0475 0,11.375 L0,14 L14,14 L14,11.375 C14,9.0475 9.33625,7.875 7,7.875 Z" fill="#fff"></path>
                </g>
            </g>
        </g>
    </g>
</svg>