<?xml version="1.0" encoding="utf-8"?>
<!-- Generator: Adobe Illustrator 25.2.3, SVG Export Plug-In . SVG Version: 6.00 Build 0)  -->
<svg version="1.1" id="Layer_1" xmlns="http://www.w3.org/2000/svg" xmlns:xlink="http://www.w3.org/1999/xlink" x="0px" y="0px"
	 viewBox="0 0 90 82.8" style="enable-background:new 0 0 90 82.8;" xml:space="preserve">
<style type="text/css">
	.st0{fill:#00205B;}
	.st1{fill:none;stroke:#00205D;stroke-width:3.3894;stroke-linejoin:round;stroke-miterlimit:10;}
	.st2{fill:none;stroke:#8DC8E8;stroke-width:3.2861;stroke-linecap:round;stroke-miterlimit:10;}
</style>
<g>
	<path class="st0" d="M45,72.1c-0.5,0-0.9-0.2-1.3-0.5l-0.1-0.1c-1.1-1.1-2.3-2.2-3.5-3.3c-0.9-0.8-1.8-1.7-2.7-2.5
		c-0.8-0.7-1.3-1.9-0.5-2.7c0.9-0.9,1.8-0.5,2.6,0.1c1,0.8,1.7,1.4,2.6,2.3c0.2,0.2,3,2.8,3,2.8C47.4,66,53.7,60,65,50.9
		c8-6.7,12.6-13.9,12.6-20.3c0.1-4.3-1.9-8.2-5.9-11.6c-3.2-2.8-7.5-4-11.8-3.2c-5.2,0.9-9.6,4.1-11.3,6.9c-0.7,1.2-1.1,3,0,4.1
		c0.2,0.2,0.4,0.4,0.7,0.4c0.4,0.1,0.8,0.4,1,0.8s0.2,0.8,0.1,1.3c-0.1,0.4-0.4,0.8-0.8,1c-0.4,0.2-0.8,0.2-1.3,0.1
		c-0.8-0.3-1.5-0.7-2.1-1.4c-1.9-2.1-2.1-5.3-0.4-8.1c2-3.4,7.1-7.4,13.6-8.5c5.2-0.9,10.5,0.5,14.4,4c4.8,4.1,7.1,8.9,7,14.2
		c-0.1,7.4-5.1,15.5-14,22.7C53.2,64.3,46.7,70.8,46,71.5C45.9,71.9,45.5,72.1,45,72.1z"/>
	<path class="st0" d="M17.1,44.9c-1.2,0.7-2.2,0-3.3-1.4c-1.4-1.7-2.6-4.2-3.2-5.5c-1-2.3-1.6-4.8-1.6-7.3c-0.1-5.3,2.3-10.1,7-14.3
		c3.7-3.2,8.6-4.7,13.4-4.2c5,0.5,9.7,2.8,12.4,6.2l0.1,0.1c0.3,0.4,0.4,0.8,0.3,1.2c-0.1,0.4-0.3,0.8-0.7,1.1
		c-0.4,0.3-0.8,0.4-1.2,0.3s-0.8-0.3-1.1-0.7c-2.1-2.6-6-4.5-10.1-5c-3.9-0.4-7.9,0.8-10.9,3.4c-4,3.4-5.9,7.4-5.8,11.7
		c0,2.2,0.5,4.4,1.5,6.4c0.7,1.5,2.1,3.6,3,4.9C17.3,42.8,18.2,44.3,17.1,44.9z"/>
	<line class="st1" x1="45" y1="39.6" x2="45" y2="52.3"/>
	<line class="st1" x1="51.3" y1="45.9" x2="38.7" y2="45.9"/>
	<line class="st2" x1="18" y1="59.2" x2="33.1" y2="59.2"/>
	<line class="st2" x1="10.5" y1="50.3" x2="29.9" y2="50.3"/>
</g>
</svg>
