<?xml version="1.0" encoding="utf-8"?>
<!-- Generator: Adobe Illustrator 25.2.3, SVG Export Plug-In . SVG Version: 6.00 Build 0)  -->
<svg version="1.1" id="Layer_1" xmlns="http://www.w3.org/2000/svg" xmlns:xlink="http://www.w3.org/1999/xlink" x="0px" y="0px"
	 viewBox="0 0 90 82.8" style="enable-background:new 0 0 90 82.8;" xml:space="preserve">
<style type="text/css">
	.st0{fill:#001F5B;}
	.st1{fill:none;stroke:#8DC8E8;stroke-width:3.2861;stroke-linecap:round;stroke-miterlimit:10;}
	.st2{fill:none;stroke:#8DC8E8;stroke-width:3.286;stroke-linecap:round;stroke-miterlimit:10;}
	.st3{fill:none;stroke:#8DC8E8;stroke-width:3.286;stroke-miterlimit:10;}
</style>
<g>
	<path class="st0" d="M75.6,16.7C69,10.1,60.2,6.5,50.9,6.5s-18.1,3.6-24.7,10.2c-0.6,0.6-0.6,1.7,0,2.4c0.6,0.6,1.7,0.6,2.4,0
		c6-6,13.9-9.3,22.3-9.3c8.4,0,16.4,3.3,22.3,9.3s9.3,13.9,9.3,22.3s-3.3,16.4-9.3,22.3C62.8,74.1,46.8,76,34.3,68.3
		c-0.8-0.5-1.8-0.2-2.3,0.5c-0.5,0.8-0.2,1.8,0.5,2.3c5.7,3.5,12,5.2,18.3,5.2c9,0,17.9-3.5,24.7-10.3c6.6-6.6,10.2-15.4,10.2-24.7
		C85.8,32.1,82.2,23.3,75.6,16.7z"/>
	<path class="st0" d="M64.7,61c0-0.9-0.7-1.7-1.7-1.7H5.9c-0.9,0-1.7,0.7-1.7,1.7c0,0.9,0.7,1.7,1.7,1.7h57.2
		C64,62.7,64.7,61.9,64.7,61z"/>
	<path class="st1" d="M5.8,30h19.7c6,0,10.9,4.9,10.9,10.9v0.2c0,6-4.9,10.9-10.9,10.9H5.8"/>
	<path class="st2" d="M25.5,36.1c2.7,0,4.9,2.2,4.9,4.9v0c0,2.7-2.2,4.9-4.9,4.9H5.8"/>
	<circle class="st3" cx="52.4" cy="41.3" r="10.6"/>
</g>
</svg>
