<?xml version="1.0" encoding="utf-8"?>
<!-- Generator: Adobe Illustrator 25.2.3, SVG Export Plug-In . SVG Version: 6.00 Build 0)  -->
<svg version="1.1" id="Layer_1" xmlns="http://www.w3.org/2000/svg" xmlns:xlink="http://www.w3.org/1999/xlink" x="0px" y="0px"
	 viewBox="0 0 90 82.8" style="enable-background:new 0 0 90 82.8;" xml:space="preserve">
<style type="text/css">
	.st0{fill:none;stroke:#001F5B;stroke-width:2.8846;stroke-linecap:round;stroke-miterlimit:10;}
	.st1{fill:#8DC8E8;}
	.st2{fill:none;}
	.st3{fill:#001F5B;}
	.st4{fill:none;stroke:#001F5B;stroke-width:4.3269;stroke-linecap:round;stroke-miterlimit:10;}
</style>
<path class="st0" d="M45,41.4"/>
<g>
	<path class="st1" d="M55.9,43.1H45.7c-0.5,0-1-0.5-1-1.2V41c0-0.7,0.4-1.2,1-1.2h10.2"/>
	<line class="st2" x1="58.4" y1="49.5" x2="58.4" y2="43.1"/>
	<path class="st1" d="M55.9,52.8H46c-0.5,0-1-0.5-1-1.2v-0.9c0-0.7,0.4-1.2,1-1.2h10"/>
	<line class="st2" x1="58.4" y1="59.7" x2="58.4" y2="52.8"/>
	<path class="st1" d="M55.9,63H46c-0.5,0-1-0.5-1-1.2v-0.9c0-0.7,0.4-1.2,1-1.2h10"/>
	<path class="st3" d="M58.4,39.8v-2.2c0-0.7,0.5-1.2,1.2-1.2h0.9c0.7,0,1.2,0.5,1.2,1.2v31.6c0,5-4,9-9,9H37.3c-5,0-9-4-9-9V37.6
		c0-0.7,0.5-1.2,1.2-1.2h0.9c0.7,0,1.2,0.5,1.2,1.2v31.6c0,3.1,2.6,5.7,5.7,5.7h15.4c3.1,0,5.7-2.6,5.7-5.7V63"/>
	<path class="st3" d="M28.3,33.2v-5.3c0-3.1,2.5-5.7,5.7-5.7h22.1c3.1,0,5.7,2.5,5.7,5.7v5.3H28.3z M58.4,30.1v-2.2
		c0-1.3-1.1-2.4-2.4-2.4H33.9c-1.3,0-2.4,1.1-2.4,2.4v2.2H58.4z"/>
	<path class="st1" d="M48.5,20.2c-0.7,0-1.2-0.5-1.2-1.2v-3l0.7-0.5c1.2-0.8,1.8-2,1.8-3.4c0-2.3-2-4.2-4.6-4.2s-4.6,1.9-4.6,4.2
		c0,1.3,0.7,2.6,1.8,3.4l0.7,0.5v3c0,0.7-0.5,1.2-1.2,1.2H41c-0.7,0-1.2-0.5-1.2-1.2v-1.4c-1.6-1.4-2.5-3.4-2.5-5.5
		c0-4.2,3.5-7.6,7.9-7.6s7.9,3.4,7.9,7.6c0,2.1-0.9,4.1-2.5,5.5V19c0,0.7-0.5,1.2-1.2,1.2H48.5z"/>
</g>
<path class="st4" d="M45,41.4"/>
<path class="st4" d="M45,41.4"/>
</svg>
